<svg
          width="272"
          height="474"
          viewBox="0 0 272 474"
          fill="none"
          xmlns="http://www.w3.org/2000/svg"
        >
          <path
            d="M42.8311 -121.111C53.0545 -145.964 81.4898 -157.824 106.343 -147.6C131.196 -137.377 143.056 -108.942 132.832 -84.0883L-81.3963 436.701C-91.6197 461.554 -120.055 473.414 -144.908 463.191C-169.761 452.967 -181.621 424.532 -171.398 399.679L42.8311 -121.111Z"
            fill="url(#paint0_linear)"
          />
          <rect
            x="294.06"
            y="236.965"
            width="104.769"
            height="746.819"
            rx="52.3844"
            transform="rotate(22.36 294.06 236.965)"
            fill="url(#paint1_linear)"
          />
          <path
            d="M232.141 511L194.5 421L156.859 511C154.383 516.318 153 522.247 153 528.5C153 551.42 171.58 570 194.5 570C217.42 570 236 551.42 236 528.5C236 522.247 234.617 516.318 232.141 511Z"
            fill="#FFF119"
          />
          <path
            d="M-37.1407 77L0.5 167L38.1408 77C40.6172 71.6824 42 65.7527 42 59.5C42 36.5802 23.4198 18 0.500013 18C-22.4198 18 -41 36.5802 -41 59.5C-41 65.7527 -39.6172 71.6824 -37.1407 77Z"
            fill="#020238"
          />
          <g style="mix-blend-mode: multiply;">
            <rect
              x="203.951"
              y="305.326"
              width="92.9508"
              height="482.423"
              rx="46.4754"
              transform="rotate(-22.36 203.951 305.326)"
              fill="url(#paint2_linear)"
            />
          </g>
          <defs>
            <linearGradient
              id="paint0_linear"
              x1="-152.028"
              y1="170.889"
              x2="109.57"
              y2="192.422"
              gradientUnits="userSpaceOnUse"
            >
              <stop stop-color="#0986B2" />
              <stop offset="1" stop-color="#00BCFF" />
            </linearGradient>
            <linearGradient
              id="paint1_linear"
              x1="219.644"
              y1="681.171"
              x2="491.251"
              y2="598.873"
              gradientUnits="userSpaceOnUse"
            >
              <stop stop-color="#0986B2" />
              <stop offset="1" stop-color="#00BCFF" />
            </linearGradient>
            <linearGradient
              id="paint2_linear"
              x1="362.997"
              y1="592.276"
              x2="138.683"
              y2="498.906"
              gradientUnits="userSpaceOnUse"
            >
              <stop stop-color="#B21238" />
              <stop offset="1" stop-color="#FF003C" />
            </linearGradient>
          </defs>
        </svg>