<?xml version="1.0" encoding="utf-8"?>
<!-- Generator: Adobe Illustrator 17.1.0, SVG Export Plug-In . SVG Version: 6.00 Build 0)  -->
<!DOCTYPE svg PUBLIC "-//W3C//DTD SVG 1.1//EN" "http://www.w3.org/Graphics/SVG/1.1/DTD/svg11.dtd">
<svg version="1.1" xmlns="http://www.w3.org/2000/svg" xmlns:xlink="http://www.w3.org/1999/xlink" x="0px" y="0px"
	 viewBox="0 0 38.2 19.9" enable-background="new 0 0 38.2 19.9" xml:space="preserve">
<g id="Layer_1">
</g>
<g id="Layer_4">
</g>
<g id="Explore_1">
	<g>
		<defs>
			<rect id="SVGID_1_" x="357.5" y="443" width="1280" height="640"/>
		</defs>
		<clipPath id="SVGID_2_">
			<use xlink:href="#SVGID_1_"  overflow="visible"/>
		</clipPath>
		<g clip-path="url(#SVGID_2_)">
			<path opacity="2.000000e-002" fill="#020238" d="M928.1-131.2C796.4-185.3,658.3-153,619.7-59.1L24.6,1387.4
				c-38.7,94,36.7,214.1,168.3,268.3c131.7,54.2,269.7,21.9,308.4-72.1l595.1-1446.5C1135.1,43.1,1059.7-77,928.1-131.2z"/>
		</g>
	</g>
</g>
<g id="Link_Wide">
	<g>
		<defs>
			<rect id="SVGID_6_" x="-794.6" y="443" width="1080" height="640"/>
		</defs>
		<clipPath id="SVGID_4_">
			<use xlink:href="#SVGID_6_"  overflow="visible"/>
		</clipPath>
		<g transform="matrix(1 0 0 1 -2.425001e-005 7.164941e-006)" clip-path="url(#SVGID_4_)">
			
				<image overflow="visible" width="3404" height="4681" xlink:href="920B741F.jpg"  transform="matrix(0.3176 0 0 0.3176 -794.8317 -200.5755)">
			</image>
		</g>
	</g>
	<g>
		<path fill="#FFF119" d="M19.1,13.6c0.9,0,1.6,0.3,2.2,0.9c0.6,0.6,0.9,1.4,0.9,2.2c0,0.9-0.3,1.6-0.9,2.2
			c-0.6,0.6-1.4,0.9-2.3,0.9s-1.6-0.3-2.2-0.9c-0.6-0.6-0.9-1.4-0.9-2.2c0-0.9,0.3-1.6,0.9-2.2C17.5,13.9,18.2,13.6,19.1,13.6z"/>
		<g>
			<g>
				<defs>
					<rect id="SVGID_12_" x="0" y="0" width="38.2" height="19.9"/>
				</defs>
				<clipPath id="SVGID_5_">
					<use xlink:href="#SVGID_12_"  overflow="visible"/>
				</clipPath>
				<g clip-path="url(#SVGID_5_)">
					<path fill="#020238" d="M6.6,3.6h2.2V10H6.6V9.3c-0.5,0.6-1.1,0.9-2,0.9c-0.9,0-1.6-0.3-2.2-1C1.8,8.5,1.5,7.7,1.5,6.8
						c0-1,0.3-1.7,0.9-2.4c0.6-0.6,1.3-1,2.2-1s1.5,0.3,2.1,0.8V3.6z M5.2,5.4c-0.4,0-0.7,0.1-1,0.4c-0.3,0.3-0.4,0.6-0.4,1
						s0.1,0.7,0.4,1c0.3,0.3,0.6,0.4,1,0.4c0.4,0,0.7-0.1,1-0.4c0.3-0.3,0.4-0.6,0.4-1s-0.1-0.7-0.4-1C6,5.5,5.6,5.4,5.2,5.4z"/>
					<path fill="#020238" d="M10.3,3.6h2.2v0.8c0.3-0.3,0.6-0.6,0.9-0.7c0.3-0.1,0.7-0.2,1.1-0.2c0.8,0,1.4,0.2,1.8,0.7
						c0.2,0.2,0.4,0.5,0.5,0.7c0.1,0.3,0.1,0.6,0.1,1v4h-2.2V6.8c0-0.5,0-0.8-0.1-1c-0.2-0.3-0.4-0.5-0.8-0.5c-0.4,0-0.7,0.1-1,0.4
						c-0.2,0.2-0.2,0.5-0.2,0.9V10h-2.2V3.6z"/>
					<path fill="#020238" d="M23.6-0.3h2.2V10h-2.2V9.3c-0.5,0.6-1.1,0.9-2,0.9c-0.9,0-1.6-0.3-2.2-1c-0.6-0.6-0.9-1.5-0.9-2.4
						c0-1,0.3-1.7,0.9-2.4c0.6-0.6,1.3-1,2.2-1c0.8,0,1.5,0.3,2.1,0.8V-0.3z M22.2,5.4c-0.4,0-0.7,0.1-1,0.4c-0.3,0.3-0.4,0.6-0.4,1
						s0.1,0.7,0.4,1c0.3,0.3,0.6,0.4,1,0.4c0.4,0,0.7-0.1,1-0.4c0.3-0.3,0.4-0.6,0.4-1s-0.1-0.7-0.4-1C23,5.5,22.6,5.4,22.2,5.4z"/>
					<path fill="#020238" d="M27.6,3.6h2.2v1c0.5-0.8,1.1-1.1,2.1-1.1c0.1,0,0.3,0,0.4,0v2.1c-0.3-0.1-0.6-0.2-0.9-0.2
						c-1,0-1.6,0.6-1.6,1.8V10h-2.2V3.6z"/>
					<path fill="#020238" d="M35.1,0c0.3,0,0.6,0.1,0.9,0.4c0.2,0.2,0.4,0.5,0.4,0.9c0,0.3-0.1,0.6-0.4,0.9
						c-0.3,0.2-0.6,0.4-0.9,0.4c-0.3,0-0.6-0.1-0.9-0.4s-0.4-0.5-0.4-0.9c0-0.3,0.1-0.6,0.4-0.9C34.5,0.1,34.8,0,35.1,0z M36.3,3.6
						V10H34V3.6H36.3z"/>
					<path fill="#020238" d="M6.6,11.6h2.2v6.3H6.6v-0.7c-0.5,0.6-1.1,0.9-2,0.9c-0.9,0-1.6-0.3-2.2-1c-0.6-0.6-0.9-1.5-0.9-2.4
						c0-1,0.3-1.7,0.9-2.4c0.6-0.6,1.3-1,2.2-1s1.5,0.3,2.1,0.8V11.6z M5.2,13.3c-0.4,0-0.7,0.1-1,0.4c-0.3,0.3-0.4,0.6-0.4,1
						s0.1,0.7,0.4,1c0.3,0.3,0.6,0.4,1,0.4c0.4,0,0.7-0.1,1-0.4c0.3-0.3,0.4-0.6,0.4-1s-0.1-0.7-0.4-1C6,13.5,5.6,13.3,5.2,13.3z"/>
					<path fill="#020238" d="M10.3,11.6h2.2v0.8c0.3-0.3,0.6-0.6,0.9-0.7c0.3-0.1,0.7-0.2,1.1-0.2c0.8,0,1.4,0.2,1.8,0.7
						c0.2,0.2,0.4,0.5,0.5,0.7c0.1,0.3,0.1,0.6,0.1,1v4h-2.2v-3.2c0-0.5,0-0.8-0.1-1c-0.2-0.3-0.4-0.5-0.8-0.5c-0.4,0-0.7,0.1-1,0.4
						c-0.2,0.2-0.2,0.5-0.2,0.9v3.4h-2.2V11.6z"/>
					<path fill="#020238" d="M19.1,15.3c0.4,0,0.7,0.1,1,0.4c0.3,0.3,0.4,0.6,0.4,1c0,0.4-0.1,0.7-0.4,1c-0.3,0.3-0.6,0.4-1,0.4
						c-0.4,0-0.7-0.1-1-0.4c-0.3-0.3-0.4-0.6-0.4-1c0-0.4,0.1-0.7,0.4-1C18.3,15.4,18.7,15.3,19.1,15.3z"/>
					<path fill="#020238" d="M28,15.2h-4.7c0,0.9,0.5,1.4,1.3,1.4c0.5,0,0.8-0.1,1.1-0.6h2.1c-0.1,0.5-0.3,0.8-0.6,1.1
						c-0.6,0.7-1.5,1.1-2.6,1.1c-1.1,0-2-0.3-2.7-0.9c-0.7-0.6-1-1.4-1-2.5c0-1,0.3-1.9,0.9-2.5s1.5-0.9,2.6-0.9
						c1.1,0,1.9,0.3,2.5,0.9C27.7,13,28,13.9,28,15V15.2z M24.6,12.9c-0.3,0-0.6,0.1-0.8,0.3c-0.2,0.2-0.4,0.4-0.4,0.8h2.6
						c-0.1-0.3-0.2-0.6-0.5-0.7C25.2,13,24.9,12.9,24.6,12.9z"/>
					<path fill="#020238" d="M30.8,17.1l-3.1-5.5h2.6l1.7,3.2l1.6-3.2h2.6l-5.1,9.5h-2.5L30.8,17.1z"/>
				</g>
			</g>
		</g>
	</g>
</g>
<g id="Background">
</g>
<g id="text_email">
</g>
<g id="Normal_Mode">
</g>
<g id="Layer_8">
</g>
</svg>
