<?xml version="1.0" standalone="no"?>
<!DOCTYPE svg PUBLIC "-//W3C//DTD SVG 20010904//EN"
 "http://www.w3.org/TR/2001/REC-SVG-20010904/DTD/svg10.dtd">
<svg version="1.0" xmlns="http://www.w3.org/2000/svg"
 width="513.000000pt" height="513.000000pt" viewBox="0 0 513.000000 513.000000"
 preserveAspectRatio="xMidYMid meet">
<metadata>
Created by potrace 1.11, written by Peter Selinger 2001-2013
</metadata>
<g transform="translate(0.000000,513.000000) scale(0.100000,-0.100000)"
fill="#000000" stroke="none">
<path d="M2498 5118 c-176 -20 -330 -133 -406 -298 -41 -91 -33 -71 -132 -315
-45 -110 -88 -213 -95 -230 -7 -16 -70 -169 -139 -340 -70 -170 -131 -319
-136 -330 -9 -18 -189 -456 -297 -720 -25 -60 -50 -121 -56 -135 -5 -14 -11
-27 -11 -30 -1 -4 -57 -141 -96 -235 -5 -11 -21 -49 -36 -85 -14 -36 -32 -78
-39 -95 -7 -16 -49 -118 -93 -225 -86 -210 -98 -239 -118 -285 -7 -16 -33 -79
-57 -140 -90 -221 -139 -341 -152 -370 -95 -225 -245 -596 -255 -634 -35 -133
-7 -305 70 -416 104 -152 267 -235 445 -230 196 5 362 108 449 279 32 61 324
762 362 869 8 20 18 45 23 55 5 9 28 64 51 122 23 58 48 119 55 135 8 17 39
93 70 170 31 77 62 154 70 170 7 17 38 93 70 170 31 77 63 154 70 170 7 17 50
120 95 230 45 110 88 214 95 230 8 17 23 55 35 85 11 30 25 64 30 75 5 11 27
63 48 115 127 310 146 351 153 338 4 -7 41 -96 82 -198 102 -252 475 -1158
492 -1195 7 -16 27 -64 43 -105 53 -133 573 -1393 590 -1430 122 -263 473
-367 729 -215 164 96 256 260 255 449 -1 45 -8 104 -16 131 -12 42 -127 333
-171 430 -13 31 -311 755 -372 905 -19 47 -40 99 -48 115 -7 17 -59 143 -115
280 -56 138 -108 264 -115 280 -7 17 -81 194 -163 395 -291 710 -404 986 -428
1040 -12 30 -55 134 -94 230 -39 96 -75 184 -80 195 -5 11 -37 87 -70 169 -34
83 -77 173 -96 202 -107 161 -294 245 -496 222z"/>
<path d="M2552 1860 c-20 -52 -205 -499 -242 -585 -89 -205 -245 -605 -254
-650 -36 -174 21 -356 151 -480 165 -158 425 -187 620 -70 71 42 97 66 150
132 92 116 127 281 92 432 -11 49 -52 152 -384 956 -129 313 -121 297 -133
265z"/>
</g>
</svg>
