<svg width="150" height="150" viewBox="0 0 150 150" fill="none" xmlns="http://www.w3.org/2000/svg" style="">
<path opacity="0.1" d="M27.5199 81.51H71.9399C77.4628 81.51 81.9399 77.0329 81.9399 71.51V38.25C81.9399 32.7272 77.4628 28.25 71.9399 28.25L27.5199 28.25C21.9971 28.25 17.5199 32.7272 17.5199 38.25V71.51C17.5199 77.0329 21.9971 81.51 27.5199 81.51Z" fill="#020238" class="kkLcWPyt_0"></path>
<path opacity="0.1" d="M60.5801 113.44L115.84 113.44C121.363 113.44 125.84 108.963 125.84 103.44V75.88C125.84 70.3572 121.363 65.88 115.84 65.88H60.5801C55.0572 65.88 50.5801 70.3572 50.5801 75.88V103.44C50.5801 108.963 55.0572 113.44 60.5801 113.44Z" fill="#020238" class="kkLcWPyt_1"></path>
<path d="M76.24 54.84H89.35" stroke="#020238" stroke-width="2" stroke-linecap="round" stroke-linejoin="round" class="kkLcWPyt_2"></path>
<path d="M73.04 62.1H89.35" stroke="#020238" stroke-width="2" stroke-linecap="round" stroke-linejoin="round" class="kkLcWPyt_3"></path>
<path d="M73.04 69.36H89.35" stroke="#020238" stroke-width="2" stroke-linecap="round" stroke-linejoin="round" class="kkLcWPyt_4"></path>
<path d="M73.04 76.62H89.35" stroke="#020238" stroke-width="2" stroke-linecap="round" stroke-linejoin="round" class="kkLcWPyt_5"></path>
<path d="M73.04 83.88H83.26" stroke="#020238" stroke-width="2" stroke-linecap="round" stroke-linejoin="round" class="kkLcWPyt_6"></path>
<path d="M53.0001 59.42C50.4298 59.4187 47.9045 60.0946 45.6785 61.3797C43.4525 62.6647 41.6043 64.5135 40.3201 66.74C41.6048 68.9662 43.453 70.8149 45.6789 72.1003C47.9047 73.3857 50.4297 74.0624 53.0001 74.0624C55.5704 74.0624 58.0954 73.3857 60.3213 72.1003C62.5471 70.8149 64.3953 68.9662 65.6801 66.74C64.3958 64.5135 62.5476 62.6647 60.3216 61.3797C58.0956 60.0946 55.5704 59.4187 53.0001 59.42V59.42Z" stroke="#020238" stroke-width="2" stroke-linecap="round" stroke-linejoin="round" class="kkLcWPyt_7"></path>
<path d="M52.9701 70.37C54.9749 70.37 56.6001 68.7448 56.6001 66.74C56.6001 64.7352 54.9749 63.11 52.9701 63.11C50.9653 63.11 49.3401 64.7352 49.3401 66.74C49.3401 68.7448 50.9653 70.37 52.9701 70.37Z" stroke="#FFF119" stroke-width="2" stroke-linecap="round" stroke-linejoin="round" class="kkLcWPyt_8"></path>
<path d="M86.92 47.85H41.74C36.2171 47.85 31.74 52.3271 31.74 57.85V80.12C31.74 85.6428 36.2171 90.12 41.74 90.12H86.92C92.4428 90.12 96.92 85.6428 96.92 80.12V57.85C96.92 52.3271 92.4428 47.85 86.92 47.85Z" stroke="#020238" stroke-width="2" stroke-miterlimit="10" class="kkLcWPyt_9"></path>
<path d="M65.6499 120.55V109.72C65.6499 107.068 66.7035 104.524 68.5788 102.649C70.4542 100.774 72.9977 99.72 75.6499 99.72H76.3499C79.0021 99.72 81.5456 100.774 83.421 102.649C85.2963 104.524 86.3499 107.068 86.3499 109.72V121.45C86.3499 124.102 87.4035 126.646 89.2788 128.521C91.1542 130.396 93.6977 131.45 96.3499 131.45H97.9299C100.582 131.45 103.126 130.396 105.001 128.521C106.876 126.646 107.93 124.102 107.93 121.45C107.93 118.798 107.93 86.1501 107.93 86.1501C107.93 83.4979 108.984 80.9544 110.859 79.079C112.734 77.2036 115.278 76.1501 117.93 76.1501L121.56 76.19C124.212 76.19 126.756 75.1364 128.631 73.2611C130.506 71.3857 131.56 68.8422 131.56 66.19L131.56 53.47M131.56 53.47L128.25 56.78M131.56 53.47L134.87 56.78" stroke="#020238" stroke-width="2" stroke-linecap="round" stroke-linejoin="round" class="kkLcWPyt_10"></path>
<style data-made-with="vivus-instant">.kkLcWPyt_0{stroke-dasharray:219 221;stroke-dashoffset:220;animation:kkLcWPyt_draw 1350ms ease 0ms forwards;}.kkLcWPyt_1{stroke-dasharray:229 231;stroke-dashoffset:230;animation:kkLcWPyt_draw 1350ms ease 15ms forwards;}.kkLcWPyt_2{stroke-dasharray:14 16;stroke-dashoffset:15;animation:kkLcWPyt_draw 1350ms ease 30ms forwards;}.kkLcWPyt_3{stroke-dasharray:17 19;stroke-dashoffset:18;animation:kkLcWPyt_draw 1350ms ease 45ms forwards;}.kkLcWPyt_4{stroke-dasharray:17 19;stroke-dashoffset:18;animation:kkLcWPyt_draw 1350ms ease 60ms forwards;}.kkLcWPyt_5{stroke-dasharray:17 19;stroke-dashoffset:18;animation:kkLcWPyt_draw 1350ms ease 75ms forwards;}.kkLcWPyt_6{stroke-dasharray:11 13;stroke-dashoffset:12;animation:kkLcWPyt_draw 1350ms ease 90ms forwards;}.kkLcWPyt_7{stroke-dasharray:62 64;stroke-dashoffset:63;animation:kkLcWPyt_draw 1350ms ease 105ms forwards;}.kkLcWPyt_8{stroke-dasharray:23 25;stroke-dashoffset:24;animation:kkLcWPyt_draw 1350ms ease 120ms forwards;}.kkLcWPyt_9{stroke-dasharray:198 200;stroke-dashoffset:199;animation:kkLcWPyt_draw 1350ms ease 135ms forwards;}.kkLcWPyt_10{stroke-dasharray:181 183;stroke-dashoffset:182;animation:kkLcWPyt_draw 1350ms ease 150ms forwards;}@keyframes kkLcWPyt_draw{100%{stroke-dashoffset:0;}}@keyframes kkLcWPyt_fade{0%{stroke-opacity:1;}92.98245614035088%{stroke-opacity:1;}100%{stroke-opacity:0;}}</style></svg>
